<?xml version="1.0" standalone="no"?>
<!DOCTYPE svg PUBLIC "-//W3C//DTD SVG 20010904//EN"
 "http://www.w3.org/TR/2001/REC-SVG-20010904/DTD/svg10.dtd">
<svg version="1.0" xmlns="http://www.w3.org/2000/svg"
 width="512.000000pt" height="512.000000pt" viewBox="0 0 512.000000 512.000000"
 preserveAspectRatio="xMidYMid meet">

<g transform="translate(0.000000,512.000000) scale(0.100000,-0.100000)"
fill="#000000" stroke="none">
<path d="M1657 4533 c-4 -3 -7 -15 -7 -25 0 -16 10 -18 114 -18 116 0 139 7
116 35 -10 11 -37 15 -115 15 -56 0 -105 -3 -108 -7z"/>
<path d="M1584 4423 c-27 -30 -26 -44 12 -110 l25 -43 92 -2 c127 -3 190 2
205 15 8 6 25 33 39 60 l25 49 -28 29 -28 29 -158 0 -159 0 -25 -27z"/>
<path d="M1578 4184 c-18 -9 -31 -28 -38 -54 -7 -27 -10 -227 -8 -613 3 -631
0 -597 67 -664 51 -51 97 -68 186 -68 69 0 86 4 127 28 52 30 89 74 107 126 7
23 11 142 11 355 0 177 5 339 10 360 5 22 20 51 35 65 l25 26 231 3 c186 2
241 0 284 -13 82 -23 134 -68 175 -150 34 -67 35 -74 34 -175 0 -128 -22 -194
-90 -269 -56 -62 -122 -95 -244 -121 -102 -22 -132 -38 -167 -90 -21 -29 -23
-45 -23 -145 0 -100 2 -116 23 -145 41 -62 72 -73 241 -80 187 -9 245 -27 322
-104 67 -68 94 -138 94 -246 0 -151 -72 -266 -207 -328 -93 -43 -168 -52 -443
-52 -317 0 -305 -7 -313 192 -6 126 -26 178 -89 232 -99 85 -258 65 -330 -41
-46 -66 -50 -99 -46 -379 l3 -261 27 -41 c15 -22 49 -54 75 -69 l48 -28 604
-3 c689 -3 707 -2 851 69 154 76 287 244 324 410 34 154 27 434 -14 554 -54
156 -186 274 -342 306 -29 6 -59 12 -67 15 -8 3 8 27 49 71 76 81 132 166 157
236 16 45 18 86 18 312 -1 257 -1 261 -28 342 -66 196 -206 319 -439 387 -173
50 -382 66 -868 65 -285 0 -350 -2 -372 -15z m277 -104 c14 -13 30 -41 36 -63
9 -32 7 -45 -11 -82 -40 -84 -135 -98 -197 -30 -53 56 -44 146 19 186 44 27
118 22 153 -11z m23 -869 c8 -5 12 -17 10 -27 -3 -17 -15 -19 -114 -22 -99 -2
-112 -1 -118 15 -12 31 21 43 118 43 50 0 97 -4 104 -9z m7 -141 c0 -25 0 -25
-106 -28 -85 -2 -108 0 -119 13 -10 12 -10 18 0 30 11 13 34 15 119 13 106 -3
106 -3 106 -28z m-12 -88 c22 -3 23 -47 1 -56 -9 -3 -55 -6 -104 -6 -67 0 -92
4 -104 16 -37 37 -11 49 101 48 48 0 96 -1 106 -2z"/>
<path d="M1715 4045 c-58 -58 -10 -142 78 -136 57 4 79 102 31 140 -36 28 -79
27 -109 -4z"/>
<path d="M1178 1284 c-5 -4 -8 -88 -8 -186 l0 -178 68 0 c125 0 182 57 182
183 0 82 -25 139 -73 163 -34 18 -157 31 -169 18z m147 -54 c75 -29 72 -218
-5 -257 -14 -7 -43 -12 -65 -11 l-40 3 -3 138 -3 137 45 0 c25 0 56 -4 71 -10z"/>
<path d="M1487 1283 c-4 -3 -7 -87 -7 -185 l0 -178 65 0 c75 0 116 17 133 55
18 39 15 68 -12 108 -20 30 -22 38 -11 47 22 19 27 65 11 103 -11 28 -23 38
-53 46 -43 12 -116 15 -126 4z m131 -55 c17 -17 15 -73 -2 -87 -8 -7 -32 -11
-53 -9 l-38 3 -3 53 -3 52 43 0 c24 0 49 -5 56 -12z m-13 -148 c33 -13 48 -52
33 -85 -12 -28 -40 -38 -84 -33 -27 3 -29 6 -32 52 -2 27 -1 55 2 62 6 16 44
18 81 4z"/>
<path d="M1752 1136 c3 -148 4 -156 27 -180 56 -60 157 -52 195 14 19 31 21
52 21 175 0 125 -2 140 -17 143 -16 3 -18 -8 -18 -121 0 -131 -10 -181 -40
-197 -30 -16 -76 -12 -101 9 -23 18 -24 26 -27 165 -3 138 -5 146 -23 146 -20
0 -20 -6 -17 -154z"/>
<path d="M2155 1276 c-59 -26 -95 -93 -95 -178 0 -98 54 -169 139 -183 57 -9
95 6 99 39 3 25 1 26 -17 17 -11 -6 -38 -11 -61 -11 -103 0 -153 143 -85 246
20 31 80 47 125 34 19 -6 36 -10 37 -10 2 0 3 11 3 24 0 16 -7 26 -22 30 -37
10 -91 6 -123 -8z"/>
<path d="M2367 1283 c-4 -3 -7 -87 -7 -185 0 -171 1 -178 20 -178 18 0 20 7
20 85 l0 85 85 0 85 0 0 -85 c0 -78 2 -85 20 -85 19 0 20 7 20 186 0 171 -1
185 -17 182 -15 -3 -19 -17 -23 -78 l-5 -75 -80 0 -80 0 -3 78 c-2 55 -7 77
-16 77 -7 0 -16 -3 -19 -7z"/>
<path d="M2731 1133 c-68 -215 -68 -216 -45 -211 13 2 24 20 35 53 l16 50 63
0 63 0 17 -50 c12 -37 22 -51 38 -53 12 -2 22 0 22 5 0 5 -26 87 -58 183 -49
147 -62 175 -80 178 -18 3 -26 -13 -71 -155z m92 27 c25 -85 24 -90 -21 -90
-21 0 -41 2 -44 5 -6 6 34 145 42 145 3 0 13 -27 23 -60z"/>
<path d="M3099 1091 c-51 -52 -36 -133 30 -161 54 -22 144 11 113 42 -9 9 -16
7 -30 -5 -52 -47 -134 22 -101 86 7 12 17 25 23 29 17 12 71 9 84 -4 9 -9 15
-9 25 1 19 19 -18 41 -71 41 -35 0 -49 -6 -73 -29z"/>
<path d="M3315 1097 c-18 -15 -28 -36 -32 -64 -5 -39 -2 -46 30 -78 39 -39 78
-45 126 -20 58 29 66 124 14 165 -36 28 -104 27 -138 -3z m117 -24 c27 -24 24
-87 -4 -107 -31 -22 -64 -20 -88 4 -24 24 -26 77 -3 102 20 22 70 23 95 1z"/>
<path d="M3540 1020 c0 -93 1 -100 20 -100 18 0 20 7 20 66 0 83 11 104 53
104 48 0 57 -15 57 -97 0 -66 2 -73 20 -73 18 0 20 7 20 73 0 82 9 97 57 97
42 0 53 -21 53 -104 0 -52 3 -66 15 -66 24 0 21 161 -3 183 -23 21 -90 22
-119 2 -18 -13 -22 -13 -33 0 -15 18 -91 20 -108 3 -9 -9 -12 -9 -12 0 0 7 -9
12 -20 12 -19 0 -20 -7 -20 -100z"/>
<path d="M2994 955 c-7 -18 3 -35 21 -35 15 0 28 27 19 41 -8 14 -34 11 -40
-6z"/>
</g>
</svg>
